<svg width="156" height="119" viewBox="0 0 156 119" fill="none" xmlns="http://www.w3.org/2000/svg">
<g opacity="0.3" filter="url(#filter0_d_2234_8882)">
<path d="M93.8075 75.221L103.466 84.8799L77.7825 110.564L52.0986 84.8799L61.6844 75.2942L77.7094 91.3192L93.8075 75.221Z" fill="white"/>
<path d="M93.8066 40.5384L103.392 50.1241L77.7084 75.808L52.0977 50.1973L61.7566 40.5384L77.7816 56.5634L93.8066 40.5384Z" fill="white"/>
<path d="M93.7339 5.78146L103.393 15.4404L77.782 41.0511L52.0981 15.3672L61.6839 5.78146L77.7089 21.8065L93.7339 5.78146Z" fill="white"/>
<path d="M93.807 -28.9763L103.466 -19.3174L77.782 6.36652L52.0981 -19.3174L61.757 -28.9763L77.782 -12.9513L93.807 -28.9763Z" fill="white"/>
</g>
<defs>
<filter id="filter0_d_2234_8882" x="48.0977" y="-28.9766" width="59.3687" height="147.54" filterUnits="userSpaceOnUse" color-interpolation-filters="sRGB">
<feFlood flood-opacity="0" result="BackgroundImageFix"/>
<feColorMatrix in="SourceAlpha" type="matrix" values="0 0 0 0 0 0 0 0 0 0 0 0 0 0 0 0 0 0 127 0" result="hardAlpha"/>
<feOffset dy="4"/>
<feGaussianBlur stdDeviation="2"/>
<feComposite in2="hardAlpha" operator="out"/>
<feColorMatrix type="matrix" values="0 0 0 0 0 0 0 0 0 0 0 0 0 0 0 0 0 0 0.25 0"/>
<feBlend mode="normal" in2="BackgroundImageFix" result="effect1_dropShadow_2234_8882"/>
<feBlend mode="normal" in="SourceGraphic" in2="effect1_dropShadow_2234_8882" result="shape"/>
</filter>
</defs>
</svg>
