<svg width="20" height="19" viewBox="0 0 20 19" fill="none" xmlns="http://www.w3.org/2000/svg">
<g filter="url(#filter0_d_2506_1639)">
<path fill-rule="evenodd" clip-rule="evenodd" d="M10.0002 1.70866C8.38936 1.70866 7.08353 3.0145 7.08353 4.62533C7.08353 6.23616 8.38936 7.54199 10.0002 7.54199C11.611 7.54199 12.9169 6.23616 12.9169 4.62533C12.9169 3.0145 11.611 1.70866 10.0002 1.70866ZM5.41686 4.62533C5.41686 2.09402 7.46889 0.0419922 10.0002 0.0419922C12.5315 0.0419922 14.5835 2.09402 14.5835 4.62533C14.5835 7.15663 12.5315 9.20866 10.0002 9.20866C7.46889 9.20866 5.41686 7.15663 5.41686 4.62533Z" fill="#424551"/>
<path fill-rule="evenodd" clip-rule="evenodd" d="M5.08691 11.7087C4.50914 11.7087 4.05755 11.99 3.87424 12.3942C3.62053 12.9536 3.39078 13.6196 3.33656 14.2513C3.31233 14.5337 3.43006 14.7418 3.5923 14.8426C4.44993 15.3753 6.43719 16.292 10.0002 16.292C13.5632 16.292 15.5505 15.3753 16.4081 14.8426C16.5703 14.7418 16.6881 14.5337 16.6638 14.2513C16.6096 13.6196 16.3799 12.9536 16.1261 12.3942C15.9428 11.99 15.4912 11.7087 14.9135 11.7087H5.08691ZM2.35639 11.7058C2.86301 10.5887 3.99428 10.042 5.08691 10.042H14.9135C16.0061 10.042 17.1374 10.5887 17.644 11.7058C17.935 12.3474 18.2472 13.2099 18.3244 14.1088C18.3946 14.9273 18.0544 15.7819 17.2876 16.2583C16.1596 16.959 13.8665 17.9587 10.0002 17.9587C6.13386 17.9587 3.84078 16.959 2.71283 16.2583C1.94595 15.7819 1.60575 14.9273 1.676 14.1088C1.75315 13.2099 2.0654 12.3474 2.35639 11.7058Z" fill="#424551"/>
</g>
<defs>
<filter id="filter0_d_2506_1639" x="-2.33301" y="0.0419922" width="24.6665" height="25.917" filterUnits="userSpaceOnUse" color-interpolation-filters="sRGB">
<feFlood flood-opacity="0" result="BackgroundImageFix"/>
<feColorMatrix in="SourceAlpha" type="matrix" values="0 0 0 0 0 0 0 0 0 0 0 0 0 0 0 0 0 0 127 0" result="hardAlpha"/>
<feOffset dy="4"/>
<feGaussianBlur stdDeviation="2"/>
<feComposite in2="hardAlpha" operator="out"/>
<feColorMatrix type="matrix" values="0 0 0 0 0 0 0 0 0 0 0 0 0 0 0 0 0 0 0.25 0"/>
<feBlend mode="normal" in2="BackgroundImageFix" result="effect1_dropShadow_2506_1639"/>
<feBlend mode="normal" in="SourceGraphic" in2="effect1_dropShadow_2506_1639" result="shape"/>
</filter>
</defs>
</svg>
